<?xml version="1.0" encoding="UTF-8"?>
<svg width="1600" height="900" viewBox="0 0 1600 900" xmlns="http://www.w3.org/2000/svg" preserveAspectRatio="xMidYMin slice">
  <defs>
    <linearGradient id="g1" x1="0%" y1="0%" x2="100%" y2="100%">
      <stop offset="0%" stop-color="#fff" stop-opacity="0.95"/>
      <stop offset="60%" stop-color="#fff" stop-opacity="0.95"/>
      <stop offset="100%" stop-color="#f8f0f0" stop-opacity="0.9"/>
    </linearGradient>
    <linearGradient id="accent" x1="0%" y1="0%" x2="100%" y2="0%">
      <stop offset="0%" stop-color="#ff6b6b" stop-opacity="0.08"/>
      <stop offset="50%" stop-color="#b30000" stop-opacity="0.06"/>
      <stop offset="100%" stop-color="#ff6b6b" stop-opacity="0.02"/>
    </linearGradient>
  </defs>
  <rect width="100%" height="100%" fill="url(#g1)"/>

  <!-- subtle red arc at top-right -->
  <g transform="translate(1200,-80)">
    <ellipse cx="0" cy="200" rx="420" ry="200" fill="url(#accent)"/>
  </g>

  <!-- hospital icon outline (side, subtle) -->
  <g transform="translate(80,120) scale(1.1)" fill="#f5f5f5" stroke="#e9e9e9">
    <rect x="20" y="40" width="280" height="160" rx="8"/>
    <rect x="40" y="20" width="240" height="40" rx="6"/>
    <rect x="80" y="80" width="40" height="40" fill="#fff"/>
    <rect x="160" y="80" width="40" height="40" fill="#fff"/>
  </g>

  <!-- blood drop accent bottom-left -->
  <g transform="translate(40,520) scale(1.2)">
    <path d="M120 20 C120 60 60 120 60 160 C60 220 180 220 180 160 C180 120 120 60 120 20 Z" fill="#b30000" opacity="0.08"/>
  </g>

  <!-- faint grid lines to evoke clinical layout -->
  <g stroke="#ececec" stroke-width="1">
    <line x1="60" y1="360" x2="1540" y2="360"/>
    <line x1="60" y1="540" x2="1540" y2="540"/>
  </g>
</svg>
